<?xml version="1.0" encoding="UTF-8" standalone="no"?>
<!-- Created with Inkscape (http://www.inkscape.org/) -->

<svg
   width="186.42171mm"
   height="59.744743mm"
   viewBox="0 0 186.4217 59.744744"
   version="1.1"
   id="svg1"
   xmlns="http://www.w3.org/2000/svg"
   xmlns:svg="http://www.w3.org/2000/svg">
  <defs
     id="defs1" />
  <g
     id="layer1"
     transform="translate(-1294.3863,-67.198144)">
    <g
       id="g56"
       transform="translate(-0.50551053,-87.14558)">
      <g
         id="g55">
        <path
           id="rect3-7"
           style="fill:#b0d3f4;stroke-width:0.813988;stroke-linecap:square;paint-order:markers fill stroke"
           transform="matrix(1,0,-0.25881905,0.96592583,0,0)"
           d="m 1352.2566,167.42085 h 11.0588 v 54.21984 h -11.0588 z" />
        <path
           id="rect2-12"
           style="fill:#b0d3f4;stroke-width:0.813988;stroke-linecap:square;paint-order:markers fill stroke"
           transform="matrix(1,0,-0.25881905,0.96592583,0,0)"
           d="m 1378.6688,159.78838 h 11.0589 v 54.21975 h -11.0589 z" />
        <path
           d="m 1331.397,176.42109 -8.1177,30.29502 h 11.0587 l 2.7495,-10.26071 z"
           style="fill:#a2cbf1;fill-opacity:1;stroke-width:0.8;stroke-linecap:square;stroke-dasharray:none;paint-order:markers fill stroke"
           id="path3-7" />
        <path
           d="m 1311.866,192.01114 8.1176,-30.29503 h -11.0587 l -2.7495,10.26072 z"
           style="fill:#a2cbf1;fill-opacity:1;stroke-width:0.8;stroke-linecap:square;stroke-dasharray:none;paint-order:markers fill stroke"
           id="path4-95" />
        <path
           d="m 1308.9247,161.71626 1.5183,5.34431 11.2634,39.65554 h 12.6316 l -1.5182,-5.3443 -11.2634,-39.65555 z"
           style="fill:#73b3eb;fill-opacity:1;stroke-width:0.8;stroke-linecap:square;stroke-dasharray:none;paint-order:markers fill stroke"
           id="path5-54" />
      </g>
      <path
         d="m 1424.4798,206.71594 q -4.215,0 -7.9551,-1.42479 -3.7401,-1.4248 -6.649,-4.2744 -2.8496,-2.90896 -4.5119,-7.12399 -1.6029,-4.2744 -1.6029,-9.85486 0,-5.52109 1.6623,-9.79549 1.7216,-4.33376 4.6306,-7.30209 2.9683,-2.96833 6.7677,-4.51186 3.7995,-1.54353 8.0145,-1.54353 4.3338,0 7.7177,1.72163 3.4433,1.72163 5.6992,4.03693 l -5.5211,6.76779 q -1.6623,-1.54353 -3.5026,-2.4934 -1.8404,-0.94986 -4.2151,-0.94986 -2.8496,0 -5.2242,1.66226 -2.3747,1.6029 -3.7995,4.68996 -1.3654,3.0277 -1.3654,7.36146 0,4.39313 1.2467,7.53956 1.306,3.08706 3.6213,4.74933 2.3153,1.6029 5.4024,1.6029 2.6715,0 4.7493,-1.18733 2.1372,-1.18734 3.6808,-2.8496 l 5.5804,6.64906 q -2.7902,3.26516 -6.4709,4.92743 -3.6214,1.60289 -7.9552,1.60289 z"
         id="text23-0"
         style="font-weight:900;font-size:59.3666px;line-height:1.1em;font-family:'Noto Sans TC';-inkscape-font-specification:'Noto Sans TC Heavy';text-align:center;letter-spacing:5.29167px;word-spacing:0px;text-orientation:upright;fill:#b0d3f4;stroke-width:0.8;stroke-linecap:square;paint-order:markers fill stroke"
         transform="skewX(-15)"
         aria-label="C" />
      <path
         d="m 1467.6903,206.71607 q -4.3338,0 -8.7269,-1.6029 -4.3337,-1.6029 -7.777,-4.74933 l 6.0554,-7.30209 q 2.3153,2.01846 5.1649,3.26516 2.9089,1.2467 5.5211,1.2467 2.9683,0 4.3337,-1.00923 1.4248,-1.0686 1.4248,-2.8496 0,-1.30606 -0.7717,-2.07783 -0.7718,-0.83113 -2.1966,-1.48417 -1.3654,-0.65303 -3.2652,-1.42479 l -5.6398,-2.37467 q -2.3153,-0.94986 -4.3931,-2.55276 -2.0185,-1.6029 -3.3245,-3.97756 -1.2467,-2.37467 -1.2467,-5.58046 0,-3.7401 2.0184,-6.7678 2.0779,-3.02769 5.6992,-4.80869 3.6214,-1.781 8.3113,-1.781 3.8589,0 7.6583,1.48417 3.7995,1.42479 6.7085,4.33376 l -5.2837,6.64906 q -2.1965,-1.66227 -4.3337,-2.4934 -2.1372,-0.8905 -4.7494,-0.8905 -2.434,0 -3.8588,0.94987 -1.3654,0.94986 -1.3654,2.67149 0,1.2467 0.8311,2.07783 0.8905,0.83114 2.3747,1.48417 1.4841,0.65303 3.4432,1.4248 l 5.5211,2.19656 q 2.7309,1.0686 4.69,2.73087 1.9591,1.66226 2.9683,3.97756 1.0686,2.25593 1.0686,5.40236 0,3.68073 -2.0184,6.82716 -1.9591,3.14643 -5.7586,5.10552 -3.7401,1.89974 -9.0831,1.89974 z"
         id="text22-3"
         style="font-weight:900;font-size:59.3666px;line-height:1.1em;font-family:'Noto Sans TC';-inkscape-font-specification:'Noto Sans TC Heavy';text-align:center;letter-spacing:5.29167px;word-spacing:0px;text-orientation:upright;fill:#b0d3f4;stroke-width:0.8;stroke-linecap:square;paint-order:markers fill stroke"
         transform="skewX(-15)"
         aria-label="S" />
      <path
         d="m 1496.831,206.71611 v -44.22812 h 28.021 v 8.84563 h -17.3944 v 8.19259 h 14.7823 v 8.90499 h -14.7823 v 9.37992 h 18.0475 v 8.90499 z"
         id="text21-4"
         style="font-weight:900;font-size:59.3666px;line-height:1.1em;font-family:'Noto Sans TC';-inkscape-font-specification:'Noto Sans TC Heavy';text-align:center;letter-spacing:5.29167px;word-spacing:0px;text-orientation:upright;fill:#b0d3f4;stroke-width:0.8;stroke-linecap:square;paint-order:markers fill stroke"
         transform="skewX(-15)"
         aria-label="E" />
    </g>
  </g>
</svg>
