<?xml version="1.0" encoding="UTF-8" standalone="no"?>
<!-- Created with Inkscape (http://www.inkscape.org/) -->

<svg
   width="472.65387mm"
   height="59.744724mm"
   viewBox="0 0 472.65385 59.744725"
   version="1.1"
   id="svg1"
   xmlns="http://www.w3.org/2000/svg"
   xmlns:svg="http://www.w3.org/2000/svg">
  <defs
     id="defs1" />
  <g
     id="layer1"
     transform="translate(-1617.0535,-67.584142)">
    <g
       id="g59"
       transform="translate(46.230139,-79.793093)">
      <g
         id="g58">
        <g
           id="g57">
          <path
             id="rect2-1-7"
             style="fill:#b0d3f4;stroke-width:0.813988;stroke-linecap:square;paint-order:markers fill stroke"
             transform="matrix(1,0,-0.25881905,0.96592583,0,0)"
             d="m 1652.7338,152.57614 h 11.0588 v 54.21975 h -11.0588 z" />
          <path
             id="rect3-3-8"
             style="fill:#b0d3f4;stroke-width:0.813988;stroke-linecap:square;paint-order:markers fill stroke"
             transform="matrix(1,0,-0.25881905,0.96592583,0,0)"
             d="m 1626.3215,160.20859 h 11.0589 v 54.21984 h -11.0589 z" />
          <path
             d="m 1607.3286,169.45457 -8.1177,30.29502 h 11.0587 l 2.7495,-10.26071 z"
             style="fill:#a2cbf1;fill-opacity:1;stroke-width:0.8;stroke-linecap:square;stroke-dasharray:none;paint-order:markers fill stroke"
             id="path3-9-5" />
          <path
             d="m 1587.7976,185.04462 8.1176,-30.29503 h -11.0587 l -2.7495,10.26072 z"
             style="fill:#a2cbf1;fill-opacity:1;stroke-width:0.8;stroke-linecap:square;stroke-dasharray:none;paint-order:markers fill stroke"
             id="path4-9-8" />
          <path
             d="m 1584.8563,154.74974 1.5183,5.34431 11.2634,39.65554 h 12.6316 l -1.5182,-5.3443 -11.2634,-39.65555 z"
             style="fill:#73b3eb;fill-opacity:1;stroke-width:0.8;stroke-linecap:square;stroke-dasharray:none;paint-order:markers fill stroke"
             id="path5-5-3" />
        </g>
        <path
           d="m 1698.5448,199.74944 q -4.2151,0 -7.9551,-1.4248 -3.7401,-1.4248 -6.6491,-4.2744 -2.8496,-2.90896 -4.5119,-7.12399 -1.6029,-4.27439 -1.6029,-9.85485 0,-5.5211 1.6623,-9.79549 1.7216,-4.33377 4.6306,-7.3021 2.9683,-2.96833 6.7678,-4.51186 3.7994,-1.54353 8.0145,-1.54353 4.3337,0 7.7176,1.72163 3.4433,1.72163 5.6992,4.03693 l -5.5211,6.76779 q -1.6622,-1.54353 -3.5026,-2.49339 -1.8404,-0.94987 -4.215,-0.94987 -2.8496,0 -5.2243,1.66227 -2.3746,1.60289 -3.7994,4.68996 -1.3655,3.02769 -1.3655,7.36146 0,4.39312 1.2467,7.53955 1.3061,3.08707 3.6214,4.74933 2.3153,1.6029 5.4023,1.6029 2.6715,0 4.7494,-1.18733 2.1372,-1.18733 3.6807,-2.8496 l 5.5805,6.64906 q -2.7903,3.26516 -6.471,4.92743 -3.6214,1.6029 -7.9551,1.6029 z"
           id="text23-6-9"
           style="font-weight:900;font-size:59.3666px;line-height:1.1em;font-family:'Noto Sans TC';-inkscape-font-specification:'Noto Sans TC Heavy';text-align:center;letter-spacing:5.29167px;word-spacing:0px;text-orientation:upright;fill:#b0d3f4;stroke-width:0.8;stroke-linecap:square;paint-order:markers fill stroke"
           transform="skewX(-15)"
           aria-label="C" />
        <path
           d="m 1741.7552,199.74956 q -4.3337,0 -8.7268,-1.6029 -4.3338,-1.6029 -7.7771,-4.74933 l 6.0554,-7.30209 q 2.3153,2.01847 5.1649,3.26516 2.909,1.2467 5.5211,1.2467 2.9683,0 4.3338,-1.00923 1.4248,-1.0686 1.4248,-2.8496 0,-1.30606 -0.7718,-2.07783 -0.7718,-0.83113 -2.1966,-1.48416 -1.3654,-0.65304 -3.2651,-1.4248 l -5.6398,-2.37466 q -2.3153,-0.94987 -4.3932,-2.55277 -2.0184,-1.6029 -3.3245,-3.97756 -1.2467,-2.37466 -1.2467,-5.58046 0,-3.7401 2.0185,-6.76779 2.0778,-3.0277 5.6992,-4.8087 3.6213,-1.781 8.3113,-1.781 3.8588,0 7.6583,1.48417 3.7994,1.4248 6.7084,4.33376 l -5.2836,6.64906 q -2.1966,-1.66227 -4.3338,-2.4934 -2.1372,-0.8905 -4.7493,-0.8905 -2.4341,0 -3.8588,0.94987 -1.3655,0.94986 -1.3655,2.6715 0,1.24669 0.8312,2.07783 0.8904,0.83113 2.3746,1.48416 1.4842,0.65303 3.4433,1.4248 l 5.5211,2.19656 q 2.7308,1.0686 4.6899,2.73087 1.9591,1.66226 2.9684,3.97756 1.0686,2.25593 1.0686,5.40236 0,3.68073 -2.0185,6.82716 -1.9591,3.14643 -5.7586,5.10553 -3.7401,1.89973 -9.0831,1.89973 z"
           id="text22-5-4"
           style="font-weight:900;font-size:59.3666px;line-height:1.1em;font-family:'Noto Sans TC';-inkscape-font-specification:'Noto Sans TC Heavy';text-align:center;letter-spacing:5.29167px;word-spacing:0px;text-orientation:upright;fill:#b0d3f4;stroke-width:0.8;stroke-linecap:square;paint-order:markers fill stroke"
           transform="skewX(-15)"
           aria-label="S" />
        <path
           d="m 1717.3732,199.74959 11.8509,-44.22811 h 28.021 l -2.3702,8.84562 h -17.3944 l -2.1952,8.19259 h 14.7823 l -2.3861,8.90499 h -14.7823 l -2.5133,9.37992 h 18.0475 l -2.3861,8.90499 z"
           id="text21-3-4"
           style="font-weight:900;font-size:59.3666px;line-height:1.1em;font-family:'Noto Sans TC';-inkscape-font-specification:'Noto Sans TC Heavy';text-align:center;letter-spacing:5.29167px;word-spacing:0px;text-orientation:upright;fill:#b0d3f4;stroke-width:0.8;stroke-linecap:square;paint-order:markers fill stroke"
           aria-label="E" />
      </g>
      <path
         d="m 1779.4464,198.91848 11.8509,-44.22812 h 10.8047 l 5.3039,21.19388 1.7091,9.79548 h 0.2968 q 0.523,-3.50262 1.1658,-7.89575 0.7181,-4.4525 1.7839,-8.43006 l 3.9291,-14.66355 h 10.0923 l -11.8509,44.22812 h -10.8047 l -5.2127,-21.31261 -1.7409,-9.67676 h -0.2969 q -0.63,3.68073 -1.3163,8.01449 -0.611,4.2744 -1.6927,8.31133 l -3.9291,14.66355 z m 59.6188,0.83113 q -4.8681,0 -8.2295,-2.07783 -3.2862,-2.1372 -4.5357,-6.11476 -1.1901,-3.97756 0.3051,-9.55802 1.0976,-4.0963 3.2786,-7.36146 2.2403,-3.26517 5.1167,-5.58046 2.9356,-2.3153 6.1034,-3.50263 3.243,-1.2467 6.2707,-1.2467 4.868,0 7.5012,2.1372 2.6331,2.13719 3.2498,5.81792 0.6166,3.68073 -0.6241,8.31133 -0.3818,1.4248 -0.894,2.67149 -0.4528,1.2467 -0.8058,1.89974 h -19.8285 q -0.1454,2.31529 0.6601,3.74009 0.8056,1.4248 2.3363,2.1372 1.5467,0.65303 3.6839,0.65303 1.8404,0 3.7052,-0.5343 1.8648,-0.5343 3.9914,-1.6029 l 1.8006,6.35223 q -3.1053,1.84036 -6.6408,2.8496 -3.4763,1.00923 -6.4446,1.00923 z m -1.409,-21.55008 h 11.5171 q 0.6681,-2.49339 -0.1332,-4.15566 -0.7419,-1.66226 -3.6509,-1.66226 -1.4248,0 -2.9058,0.65303 -1.4058,0.59366 -2.7056,1.89973 -1.2246,1.2467 -2.1216,3.26516 z m 33.6452,21.55008 q -4.2151,0 -6.4412,-1.66227 -2.1508,-1.72163 -2.6021,-4.68996 -0.3761,-3.02769 0.6897,-7.00526 l 3.4837,-13.00128 h -4.5712 l 2.0997,-7.83639 5.3356,-0.41557 3.5893,-8.96436 h 8.7269 l -2.402,8.96436 h 7.9552 l -2.2111,8.25196 h -7.9552 l -3.4518,12.88255 q -0.7477,2.79023 0.1056,4.03693 0.9286,1.18733 2.7689,1.18733 0.8312,0 1.71,-0.1781 0.8948,-0.23746 1.5521,-0.47493 l -0.3898,7.65829 q -1.4174,0.41557 -3.4285,0.83113 -1.9517,0.41557 -4.5638,0.41557 z m 19.0419,-0.83113 0.7398,-33.7796 h 10.4486 l -1.0128,15.07912 q -0.2684,2.55276 -0.6397,5.04616 -0.3713,2.4934 -0.6556,5.10553 h 0.2968 q 1.1749,-2.61213 2.2585,-5.10553 1.159,-2.55277 2.4208,-5.04616 l 7.543,-15.07912 h 9.0831 l -0.4191,15.07912 q -0.09,2.55276 -0.2835,5.04616 -0.1931,2.4934 -0.3588,5.10553 h 0.2969 q 1.1154,-2.61213 2.0804,-5.10553 1.0243,-2.4934 2.1239,-5.04616 l 6.9494,-15.07912 h 9.7955 l -17.0064,33.7796 h -12.3482 l 0.6022,-12.88256 q 0.1614,-2.37466 0.3821,-4.74932 0.2367,-2.43403 0.4934,-5.1649 h -0.2968 q -1.1473,2.73087 -2.1557,5.1649 -0.9925,2.37466 -2.1037,4.74932 l -6.1827,12.88256 z m 60.9248,0.83113 q -4.2744,0 -7.5171,-2.07783 -3.2268,-2.1372 -4.5356,-6.11476 -1.2496,-3.97756 0.2457,-9.55802 1.4953,-5.58047 4.8605,-9.49866 3.4404,-3.97756 7.7966,-6.05539 4.3722,-2.1372 8.6466,-2.1372 3.2058,0 5.8559,1.18733 2.6502,1.18733 4.3451,3.50263 1.7109,2.25593 2.2014,5.52109 0.4905,3.26517 -0.6389,7.4802 -1.4953,5.58046 -4.9357,9.55802 -3.3811,3.97756 -7.7532,6.11476 -4.2969,2.07783 -8.5713,2.07783 z m 2.2907,-8.54879 q 1.9591,0 3.508,-1.12797 1.6083,-1.12796 2.7587,-3.20579 1.1505,-2.07783 1.8981,-4.86806 0.7476,-2.79023 0.6948,-4.8087 -0.037,-2.07783 -1.0407,-3.2058 -0.9445,-1.12796 -2.9036,-1.12796 -1.9591,0 -3.5674,1.12796 -1.5489,1.12797 -2.7587,3.2058 -1.1345,2.01847 -1.8822,4.8087 -0.7476,2.79023 -0.7107,4.86806 0.096,2.07783 1.0408,3.20579 1.0038,1.12797 2.9629,1.12797 z m 21.085,7.71766 9.0512,-33.7796 h 8.6081 l -0.803,5.87729 h 0.1781 q 2.8064,-3.38389 5.8046,-5.04616 3.0575,-1.66226 5.6103,-1.66226 1.5435,0 2.3703,0.23746 0.9022,0.1781 1.5351,0.47494 l -4.1554,9.08309 q -0.8863,-0.23747 -1.6856,-0.3562 -0.7835,-0.1781 -1.9114,-0.1781 -1.8404,0 -4.284,1.36543 -2.3844,1.36543 -4.5812,4.68996 l -5.1699,19.29415 z m 27.5461,0 12.7098,-47.43392 h 10.3892 l -7.0628,26.35877 h 0.2968 l 13.3778,-12.70445 h 11.5765 l -15.5246,14.06989 7.3045,19.70971 h -11.4577 l -3.8662,-12.82319 -5.1112,4.4525 -2.2429,8.37069 z"
         id="text21-3-2-6"
         style="font-weight:900;font-size:59.3666px;line-height:1.1em;font-family:'Noto Sans TC';-inkscape-font-specification:'Noto Sans TC Heavy';text-align:center;letter-spacing:0px;word-spacing:0px;text-orientation:upright;fill:#73b3eb;stroke-width:0.8;stroke-linecap:square;paint-order:markers fill stroke"
         aria-label="Network" />
    </g>
  </g>
</svg>
